<svg id="visual" viewBox="0 0 900 600" width="900" height="600" xmlns="http://www.w3.org/2000/svg" xmlns:xlink="http://www.w3.org/1999/xlink" version="1.1"><rect x="0" y="0" width="900" height="600" fill="#001220"></rect><path d="M0 457L10.7 464.7C21.3 472.3 42.7 487.7 64.2 490.8C85.7 494 107.3 485 128.8 482.5C150.3 480 171.7 484 193 481.2C214.3 478.3 235.7 468.7 257 468.8C278.3 469 299.7 479 321.2 478.3C342.7 477.7 364.3 466.3 385.8 466.5C407.3 466.7 428.7 478.3 450 482.8C471.3 487.3 492.7 484.7 514.2 479.3C535.7 474 557.3 466 578.8 461.8C600.3 457.7 621.7 457.3 643 464.3C664.3 471.3 685.7 485.7 707 491.2C728.3 496.7 749.7 493.3 771.2 492.7C792.7 492 814.3 494 835.8 488.2C857.3 482.3 878.7 468.7 889.3 461.8L900 455L900 601L889.3 601C878.7 601 857.3 601 835.8 601C814.3 601 792.7 601 771.2 601C749.7 601 728.3 601 707 601C685.7 601 664.3 601 643 601C621.7 601 600.3 601 578.8 601C557.3 601 535.7 601 514.2 601C492.7 601 471.3 601 450 601C428.7 601 407.3 601 385.8 601C364.3 601 342.7 601 321.2 601C299.7 601 278.3 601 257 601C235.7 601 214.3 601 193 601C171.7 601 150.3 601 128.8 601C107.3 601 85.7 601 64.2 601C42.7 601 21.3 601 10.7 601L0 601Z" fill="#ac6eae"></path><path d="M0 518L10.7 517.5C21.3 517 42.7 516 64.2 520.2C85.7 524.3 107.3 533.7 128.8 532.7C150.3 531.7 171.7 520.3 193 515.5C214.3 510.7 235.7 512.3 257 513C278.3 513.7 299.7 513.3 321.2 510.7C342.7 508 364.3 503 385.8 506C407.3 509 428.7 520 450 520.8C471.3 521.7 492.7 512.3 514.2 508C535.7 503.7 557.3 504.3 578.8 506C600.3 507.7 621.7 510.3 643 509.7C664.3 509 685.7 505 707 502.8C728.3 500.7 749.7 500.3 771.2 506.7C792.7 513 814.3 526 835.8 531.2C857.3 536.3 878.7 533.7 889.3 532.3L900 531L900 601L889.3 601C878.7 601 857.3 601 835.8 601C814.3 601 792.7 601 771.2 601C749.7 601 728.3 601 707 601C685.7 601 664.3 601 643 601C621.7 601 600.3 601 578.8 601C557.3 601 535.7 601 514.2 601C492.7 601 471.3 601 450 601C428.7 601 407.3 601 385.8 601C364.3 601 342.7 601 321.2 601C299.7 601 278.3 601 257 601C235.7 601 214.3 601 193 601C171.7 601 150.3 601 128.8 601C107.3 601 85.7 601 64.2 601C42.7 601 21.3 601 10.7 601L0 601Z" fill="#cd94cf"></path><path d="M0 542L10.7 544.2C21.3 546.3 42.7 550.7 64.2 552.3C85.7 554 107.3 553 128.8 553.7C150.3 554.3 171.7 556.7 193 556.7C214.3 556.7 235.7 554.3 257 550.7C278.3 547 299.7 542 321.2 539.8C342.7 537.7 364.3 538.3 385.8 538.5C407.3 538.7 428.7 538.3 450 540.7C471.3 543 492.7 548 514.2 547C535.7 546 557.3 539 578.8 541C600.3 543 621.7 554 643 554.5C664.3 555 685.7 545 707 544.2C728.3 543.3 749.7 551.7 771.2 553C792.7 554.3 814.3 548.7 835.8 551.3C857.3 554 878.7 565 889.3 570.5L900 576L900 601L889.3 601C878.7 601 857.3 601 835.8 601C814.3 601 792.7 601 771.2 601C749.7 601 728.3 601 707 601C685.7 601 664.3 601 643 601C621.7 601 600.3 601 578.8 601C557.3 601 535.7 601 514.2 601C492.7 601 471.3 601 450 601C428.7 601 407.3 601 385.8 601C364.3 601 342.7 601 321.2 601C299.7 601 278.3 601 257 601C235.7 601 214.3 601 193 601C171.7 601 150.3 601 128.8 601C107.3 601 85.7 601 64.2 601C42.7 601 21.3 601 10.7 601L0 601Z" fill="#efbbf1"></path></svg>